REM DIRINDEX 1\2,1\3,1\4,1\5
REM DIRNAME folder01,folder02,folder03,folder04,folder05
TITLE ""
FILE "1Q_t_0273-0282.mp3" MP3
  TRACK 01 AUDIO
    TITLE "3:cjc004_1720"
    INDEX 01 00:00:00
  TRACK 02 AUDIO
    TITLE "0:"
    INDEX 01 00:01:03
  TRACK 03 AUDIO
    TITLE "4:cjc004_1721"
    INDEX 01 00:01:28
  TRACK 04 AUDIO
    TITLE "0:"
    INDEX 01 00:02:30
  TRACK 05 AUDIO
    TITLE "5:cjc004_1722"
    INDEX 01 00:02:51
  TRACK 06 AUDIO
    TITLE "0:"
    INDEX 01 00:09:06
  TRACK 07 AUDIO
    TITLE "3:cjc004_1723"
    INDEX 01 00:09:63
  TRACK 08 AUDIO
    TITLE "0:"
    INDEX 01 00:10:72
  TRACK 09 AUDIO
    TITLE "4:cjc004_1724"
    INDEX 01 00:11:21
  TRACK 10 AUDIO
    TITLE "0:"
    INDEX 01 00:12:30
  TRACK 11 AUDIO
    TITLE "5:cjc004_1725"
    INDEX 01 00:12:61
  TRACK 12 AUDIO
    TITLE "0:"
    INDEX 01 00:17:18
  TRACK 13 AUDIO
    TITLE "3:cjc004_1726"
    INDEX 01 00:17:67
  TRACK 14 AUDIO
    TITLE "0:"
    INDEX 01 00:18:74
  TRACK 15 AUDIO
    TITLE "4:cjc004_1727"
    INDEX 01 00:19:32
  TRACK 16 AUDIO
    TITLE "0:"
    INDEX 01 00:20:43
  TRACK 17 AUDIO
    TITLE "5:cjc004_1728"
    INDEX 01 00:21:02
  TRACK 18 AUDIO
    TITLE "0:"
    INDEX 01 00:24:72
  TRACK 19 AUDIO
    TITLE "3:cjc004_1729"
    INDEX 01 00:25:54
  TRACK 20 AUDIO
    TITLE "0:"
    INDEX 01 00:26:71
  TRACK 21 AUDIO
    TITLE "4:cjc004_1730"
    INDEX 01 00:27:24
  TRACK 22 AUDIO
    TITLE "0:"
    INDEX 01 00:28:41
  TRACK 23 AUDIO
    TITLE "5:cjc004_1731"
    INDEX 01 00:29:01
  TRACK 24 AUDIO
    TITLE "0:"
    INDEX 01 00:33:22
  TRACK 25 AUDIO
    TITLE "3:cjc004_1732"
    INDEX 01 00:34:00
  TRACK 26 AUDIO
    TITLE "0:"
    INDEX 01 00:34:73
  TRACK 27 AUDIO
    TITLE "4:cjc004_1733"
    INDEX 01 00:35:27
  TRACK 28 AUDIO
    TITLE "0:"
    INDEX 01 00:36:52
  TRACK 29 AUDIO
    TITLE "5:cjc004_1734"
    INDEX 01 00:37:01
  TRACK 30 AUDIO
    TITLE "0:"
    INDEX 01 00:41:10
  TRACK 31 AUDIO
    TITLE "3:cjc004_1735"
    INDEX 01 00:41:65
  TRACK 32 AUDIO
    TITLE "0:"
    INDEX 01 00:43:03
  TRACK 33 AUDIO
    TITLE "4:cjc004_1736"
    INDEX 01 00:43:40
  TRACK 34 AUDIO
    TITLE "0:"
    INDEX 01 00:44:46
  TRACK 35 AUDIO
    TITLE "5:cjc004_1737"
    INDEX 01 00:45:00
  TRACK 36 AUDIO
    TITLE "0:"
    INDEX 01 00:49:70
  TRACK 37 AUDIO
    TITLE "3:cjc004_1738"
    INDEX 01 00:50:48
  TRACK 38 AUDIO
    TITLE "0:"
    INDEX 01 00:51:65
  TRACK 39 AUDIO
    TITLE "4:cjc004_1739"
    INDEX 01 00:52:22
  TRACK 40 AUDIO
    TITLE "0:"
    INDEX 01 00:53:45
  TRACK 41 AUDIO
    TITLE "5:cjc004_1740"
    INDEX 01 00:54:01
  TRACK 42 AUDIO
    TITLE "0:"
    INDEX 01 00:58:24
  TRACK 43 AUDIO
    TITLE "3:cjc004_1741"
    INDEX 01 00:59:04
  TRACK 44 AUDIO
    TITLE "0:"
    INDEX 01 01:00:19
  TRACK 45 AUDIO
    TITLE "4:cjc004_1742"
    INDEX 01 01:00:57
  TRACK 46 AUDIO
    TITLE "0:"
    INDEX 01 01:02:01
  TRACK 47 AUDIO
    TITLE "5:cjc004_1743"
    INDEX 01 01:02:28
  TRACK 48 AUDIO
    TITLE "0:"
    INDEX 01 01:05:69
  TRACK 49 AUDIO
    TITLE "3:cjc004_1744"
    INDEX 01 01:06:49
  TRACK 50 AUDIO
    TITLE "0:"
    INDEX 01 01:07:51
  TRACK 51 AUDIO
    TITLE "4:cjc004_1745"
    INDEX 01 01:08:05
  TRACK 52 AUDIO
    TITLE "0:"
    INDEX 01 01:09:18
  TRACK 53 AUDIO
    TITLE "5:cjc004_1746"
    INDEX 01 01:09:42
  TRACK 54 AUDIO
    TITLE "0:"
    INDEX 01 01:13:53
  TRACK 55 AUDIO
    TITLE "3:cjc004_1747"
    INDEX 01 01:14:31
  TRACK 56 AUDIO
    TITLE "0:"
    INDEX 01 01:15:48
  TRACK 57 AUDIO
    TITLE "4:cjc004_1748"
    INDEX 01 01:16:05
  TRACK 58 AUDIO
    TITLE "0:"
    INDEX 01 01:17:22
  TRACK 59 AUDIO
    TITLE "5:cjc004_1749"
    INDEX 01 01:17:47
  TRACK 60 AUDIO
    TITLE "0:"
    INDEX 01 01:22:56
